<svg xmlns="http://www.w3.org/2000/svg" viewBox="0 0 64 64" role="img" aria-labelledby="title">
  <title id="title">Grey Wolf paw</title>
  <rect width="64" height="64" rx="15" fill="#07182e"/>
  <ellipse cx="15" cy="23" rx="7" ry="9" transform="rotate(-24 15 23)" fill="#ffffff"/>
  <ellipse cx="27" cy="15" rx="7" ry="9" transform="rotate(-8 27 15)" fill="#ffffff"/>
  <ellipse cx="39" cy="15" rx="7" ry="9" transform="rotate(8 39 15)" fill="#ffffff"/>
  <ellipse cx="50" cy="24" rx="7" ry="9" transform="rotate(24 50 24)" fill="#ffffff"/>
  <path d="M13 45c0-8 7-17 19-17s19 9 19 17c0 7-5 11-11 9-3-1-5-3-8-3s-5 2-8 3c-6 2-11-2-11-9Z" fill="#ffffff"/>
  <path d="M28 32c2-1 6-1 8 0-1 3-2 6-4 8-2-2-3-5-4-8Z" fill="#6fb5ff" opacity=".85"/>
</svg>
